<svg xmlns="http://www.w3.org/2000/svg" xmlns:xlink="http://www.w3.org/1999/xlink" fill="none" version="1.1" width="320" height="50" viewBox="0 0 320 50"><script xmlns=""/><g><g><g/><g><g><g><path d="M168.02023013183594,14.995896339416504C169.40121013183594,14.995896339416504,170.52071013183593,16.115396339416503,170.52071013183593,17.496366339416504C170.52071013183593,17.496366339416504,170.52071013183593,35.99989633941651,170.52071013183593,35.99989633941651C170.52071013183593,37.380796339416506,169.40121013183594,38.500396339416504,168.02023013183594,38.500396339416504C166.63926013183593,38.500396339416504,165.51976013183594,37.380796339416506,165.51976013183594,35.99989633941651C165.51976013183594,35.99989633941651,165.51976013183594,17.496366339416504,165.51976013183594,17.496366339416504C165.51976013183594,16.115396339416503,166.63926013183593,14.995896339416504,168.02023013183594,14.995896339416504C168.02023013183594,14.995896339416504,168.02023013183594,14.995896339416504,168.02023013183594,14.995896339416504Z" fill-rule="evenodd" fill="#424242" fill-opacity="1"/></g><g><path d="M126.0123025390625,24.997796339416503C126.0123025390625,24.997796339416503,126.0123025390625,35.99989633941651,126.0123025390625,35.99989633941651C126.0123025390625,37.380796339416506,124.8928025390625,38.500396339416504,123.5118225390625,38.500396339416504C122.1308525390625,38.500396339416504,121.0113525390625,37.380796339416506,121.0113525390625,35.99989633941651C121.0113525390625,35.99989633941651,121.0113525390625,24.997796339416503,121.0113525390625,24.997796339416503C121.0113525390625,23.616816339416502,122.1308525390625,22.497316339416503,123.5118225390625,22.497316339416503C124.8928025390625,22.497316339416503,126.0123025390625,23.616816339416502,126.0123025390625,24.997796339416503C126.0123025390625,24.997796339416503,126.0123025390625,24.997796339416503,126.0123025390625,24.997796339416503ZM126.0123025390625,17.496366339416504C126.0123025390625,18.877356339416504,124.8928025390625,19.996846339416503,123.5118225390625,19.996846339416503C122.1308525390625,19.996846339416503,121.0113525390625,18.877356339416504,121.0113525390625,17.496366339416504C121.0113525390625,16.115396339416503,122.1308525390625,14.995896339416504,123.5118225390625,14.995896339416504C124.8928025390625,14.995896339416504,126.0123025390625,16.115396339416503,126.0123025390625,17.496366339416504C126.0123025390625,17.496366339416504,126.0123025390625,17.496366339416504,126.0123025390625,17.496366339416504Z" fill-rule="evenodd" fill="#424242" fill-opacity="1"/></g><g><path d="M221.53044463867187,17.496366339416504C221.53044463867187,17.496366339416504,221.53044463867187,19.996846339416503,221.53044463867187,19.996846339416503C221.53044463867187,19.996846339416503,226.03128463867188,19.996846339416503,226.03128463867188,19.996846339416503C227.41225463867187,19.996846339416503,228.53175463867188,21.116346339416502,228.53175463867188,22.497316339416503C228.53175463867188,23.878286339416505,227.41225463867187,24.997796339416503,226.03128463867188,24.997796339416503C226.03128463867188,24.997796339416503,221.53044463867187,24.997796339416503,221.53044463867187,24.997796339416503C221.53044463867187,24.997796339416503,221.53232463867187,29.376196339416502,221.53232463867187,29.376196339416502C221.59853463867188,31.622396339416504,223.4073946386719,33.431296339416505,225.65364463867186,33.4974963394165C225.65364463867186,33.4974963394165,225.7812346386719,33.499396339416506,225.7812346386719,33.499396339416506C225.7812346386719,33.499396339416506,226.03128463867188,33.499396339416506,226.03128463867188,33.499396339416506C227.41225463867187,33.499396339416506,228.53175463867188,34.61889633941651,228.53175463867188,35.99989633941651C228.53175463867188,37.380796339416506,227.41225463867187,38.500396339416504,226.03128463867188,38.500396339416504C226.03128463867188,38.500396339416504,225.7812346386719,38.500396339416504,225.7812346386719,38.500396339416504C225.7812346386719,38.500396339416504,225.6131546386719,38.4987963394165,225.6131546386719,38.4987963394165C220.63701463867187,38.410296339416504,216.61965163867188,34.392796339416506,216.53099084867188,29.416696339416504C216.53099084867188,29.416696339416504,216.52975465247397,17.496366339416504,216.52975465247397,17.496366339416504C216.52961112567186,16.115536339416504,217.64887463867188,14.996039616416503,219.02971463867186,14.995896339416504C219.02980463867186,14.995896339416504,219.02987463867188,14.995896339416504,219.02995463867188,14.995896339416504C220.41094463867188,14.995896339416504,221.53044463867187,16.115396339416503,221.53044463867187,17.496366339416504C221.53044463867187,17.496366339416504,221.53044463867187,17.496366339416504,221.53044463867187,17.496366339416504Z" fill-rule="evenodd" fill="#424242" fill-opacity="1"/></g><g><path d="M134.51401092285155,17.496366339416504C134.51401092285155,17.496366339416504,134.51401092285155,19.996846339416503,134.51401092285155,19.996846339416503C134.51401092285155,19.996846339416503,139.01485092285156,19.996846339416503,139.01485092285156,19.996846339416503C140.39582092285156,19.996846339416503,141.51532092285157,21.116346339416502,141.51532092285157,22.497316339416503C141.51532092285157,23.878286339416505,140.39582092285156,24.997796339416503,139.01485092285156,24.997796339416503C139.01485092285156,24.997796339416503,134.51401092285155,24.997796339416503,134.51401092285155,24.997796339416503C134.51401092285155,24.997796339416503,134.51589092285155,29.376196339416502,134.51589092285155,29.376196339416502C134.58210092285157,31.622396339416504,136.39096092285158,33.431296339416505,138.63721092285155,33.4974963394165C138.63721092285155,33.4974963394165,138.76480092285158,33.499396339416506,138.76480092285158,33.499396339416506C138.76480092285158,33.499396339416506,139.01485092285156,33.499396339416506,139.01485092285156,33.499396339416506C140.39582092285156,33.499396339416506,141.51532092285157,34.61889633941651,141.51532092285157,35.99989633941651C141.51532092285157,37.380796339416506,140.39582092285156,38.500396339416504,139.01485092285156,38.500396339416504C139.01485092285156,38.500396339416504,138.76480092285158,38.500396339416504,138.76480092285158,38.500396339416504C138.76480092285158,38.500396339416504,138.59672092285157,38.4987963394165,138.59672092285157,38.4987963394165C133.62058092285156,38.410296339416504,129.60321752285157,34.392796339416506,129.51455713285156,29.416696339416504C129.51455713285156,29.416696339416504,129.51332093660565,17.496366339416504,129.51332093660565,17.496366339416504C129.51317765985155,16.115536339416504,130.63244092285157,14.996039616416503,132.01328092285155,14.995896339416504C132.01337092285155,14.995896339416504,132.01344092285157,14.995896339416504,132.01352092285157,14.995896339416504C133.39451092285157,14.995896339416504,134.51401092285155,16.115396339416503,134.51401092285155,17.496366339416504C134.51401092285155,17.496366339416504,134.51401092285155,17.496366339416504,134.51401092285155,17.496366339416504Z" fill-rule="evenodd" fill="#424242" fill-opacity="1"/></g><g style="opacity:0.5;"><path d="M93.5780125130625,48.59950534820557C93.5780125130625,48.59950534820557,93.5777587890625,33.304505348205566,93.5777587890625,33.304505348205566C93.5777587890625,33.304505348205566,105.3821587890625,40.10978534820556,105.3821587890625,40.10978534820556C106.1355587890625,40.54412534820557,106.5998587890625,41.34760534820557,106.5998587890625,42.217245348205566C106.5998587890625,43.08589534820557,106.1327587890625,43.88740534820557,105.3770587890625,44.31570534820557C105.3770587890625,44.31570534820557,95.6686787890625,49.817705348205564,95.6686787890625,49.817705348205564C94.9958687890625,50.19900534820557,94.1413457890625,49.96270534820557,93.7600467890625,49.289905348205565C93.6407337890625,49.079305348205565,93.5780165150625,48.841505348205565,93.5780125130625,48.59950534820557C93.5780125130625,48.59950534820557,93.5780125130625,48.59950534820557,93.5780125130625,48.59950534820557Z" fill-rule="evenodd" fill="#146AFF" fill-opacity="1"/></g><g><path d="M159.51859829711913,38.50030614471436C160.89959829711916,38.50030614471436,162.01909829711914,37.380806144714356,162.01909829711914,35.999806144714356C162.01909829711914,35.999806144714356,162.01909829711914,20.996996144714355,162.01909829711914,20.996996144714355C162.01909829711914,20.444605144714355,161.57129829711914,19.996806144714355,161.01889829711914,19.996806144714355C161.01889829711914,19.996806144714355,152.76733829711915,19.996806144714355,152.76733829711915,19.996806144714355C147.65775829711913,19.996806144714355,143.51559829711914,24.138966144714356,143.51559829711914,29.248546144714354C143.51559829711914,34.302006144714355,147.56720829711915,38.40920614471436,152.59925829711915,38.49880614471435C152.59925829711915,38.49880614471435,152.76733829711915,38.50030614471436,152.76733829711915,38.50030614471436C152.76733829711915,38.50030614471436,153.01739829711914,38.50030614471436,153.01739829711914,38.50030614471436C154.39839829711914,38.50030614471436,155.51789829711913,37.380806144714356,155.51789829711913,35.999806144714356C155.51789829711913,34.61890614471436,154.39839829711914,33.49940614471436,153.01739829711914,33.49940614471436C153.01739829711914,33.49940614471436,152.76733829711915,33.49940614471436,152.76733829711915,33.49940614471436C150.41968829711914,33.49940614471436,148.51654829711913,31.596206144714355,148.51654829711913,29.248546144714354C148.51654829711913,26.943586144714356,150.35111829711914,25.067096144714355,152.63974829711913,24.999646144714355C152.63974829711913,24.999646144714355,152.76733829711915,24.997756144714355,152.76733829711915,24.997756144714355C152.76733829711915,24.997756144714355,157.01819829711914,24.997256144714356,157.01819829711914,24.997256144714356C157.01819829711914,24.997256144714356,157.01819829711914,35.999806144714356,157.01819829711914,35.999806144714356C157.01819829711914,37.380806144714356,158.13759829711915,38.50030614471436,159.51859829711913,38.50030614471436C159.51859829711913,38.50030614471436,159.51859829711913,38.50030614471436,159.51859829711913,38.50030614471436Z" fill="#424242" fill-opacity="1"/></g><g><path d="M198.52599032470704,38.50030614471436C197.14502032470702,38.50030614471436,196.02552032470703,37.380806144714356,196.02552032470703,35.999806144714356C196.02552032470703,35.999806144714356,196.02552032470703,20.996996144714355,196.02552032470703,20.996996144714355C196.02552032470703,20.444605144714355,196.47331932470703,19.996806144714355,197.02571032470703,19.996806144714355C197.02571032470703,19.996806144714355,205.02723032470703,19.996806144714355,205.02723032470703,19.996806144714355C209.39372032470703,19.996806144714355,212.94332032470703,23.494406144714354,213.02722032470703,27.840866144714354C213.02722032470703,27.840866144714354,213.02872032470702,27.998316144714355,213.02872032470702,27.998316144714355C213.02872032470702,27.998316144714355,213.02872032470702,35.999806144714356,213.02872032470702,35.999806144714356C213.02872032470702,37.380806144714356,211.90922032470704,38.50030614471436,210.52832032470704,38.50030614471436C209.14732032470704,38.50030614471436,208.02782032470702,37.380806144714356,208.02782032470702,35.999806144714356C208.02782032470702,35.999806144714356,208.02782032470702,27.998316144714355,208.02782032470702,27.998316144714355C208.02782032470702,26.378816144714357,206.74472032470703,25.058986144714353,205.13971032470704,24.999816144714355C205.13971032470704,24.999816144714355,205.02723032470703,24.997756144714355,205.02723032470703,24.997756144714355C205.02723032470703,24.997756144714355,201.02647032470702,24.997756144714355,201.02647032470702,24.997756144714355C201.02647032470702,24.997756144714355,201.02647032470702,35.999806144714356,201.02647032470702,35.999806144714356C201.02647032470702,37.380806144714356,199.90698032470704,38.50030614471436,198.52599032470704,38.50030614471436C198.52599032470704,38.50030614471436,198.52599032470704,38.50030614471436,198.52599032470704,38.50030614471436Z" fill="#424242" fill-opacity="1"/></g><g><g><path d="M95.6715553515625,0.1831596948852539C95.6715553515625,0.1831596948852539,107.8501353515625,7.111605694885254,107.8501353515625,7.111605694885254C108.5223353515625,7.494015694885254,108.7572353515625,8.348945694885254,108.3748353515625,9.021115694885253C108.2484353515625,9.243285694885254,108.0636353515625,9.426605694885254,107.8404353515625,9.551245694885253C107.8404353515625,9.551245694885253,97.2239953515625,15.480085694885254,97.2239953515625,15.480085694885254C96.0424053515625,16.139985694885254,94.5496173515625,15.717085694885254,93.8897523515625,14.535485694885255C93.6858003515625,14.170285694885253,93.5787300507625,13.758985694885254,93.57873535175933,13.340685694885254C93.57873535175933,13.340685694885254,93.5788870145625,1.400235694885254,93.5788870145625,1.400235694885254C93.5788968665625,0.6268886948852539,94.2058243515625,-0.00002412186474609375,94.9791653515625,-0.00001430499945509375C95.2219453515625,-0.00001122442474609375,95.4605453515625,0.06311129488525391,95.6715553515625,0.1831596948852539C95.6715553515625,0.1831596948852539,95.6715553515625,0.1831596948852539,95.6715553515625,0.1831596948852539Z" fill-rule="evenodd" fill="#146AFF" fill-opacity="1"/></g><g><path d="M106.6003337890625,42.2170700668335C106.6003337890625,42.2170700668335,106.5977337890625,42.1041700668335,106.5977337890625,42.1041700668335C106.5612337890625,41.3176700668335,106.1458337890625,40.597270066833495,105.4838337890625,40.17147006683349C105.4838337890625,40.17147006683349,105.3827337890625,40.109870066833494,105.3827337890625,40.109870066833494C105.3827337890625,40.109870066833494,101.67283378906251,37.970970066833495,101.67283378906251,37.970970066833495Q101.67283378906251,37.970970066833495,93.1868337890625,33.078870066833495Q84.7007857890625,28.186670066833496,84.7007857890625,28.186670066833496C84.4835507890625,28.061470066833497,84.3039307890625,27.880170066833497,84.1806867890625,27.661870066833494C83.8005867890625,26.988370066833497,84.0384252890625,26.134270066833494,84.7119127890625,25.754170066833495C84.7119127890625,25.754170066833495,102.94543378906249,15.463581066833497,102.94543378906249,15.463581066833497C103.3130337890625,15.256159066833495,103.7278337890625,15.147170066833496,104.1498337890625,15.147170066833496C105.5032337890625,15.147170066833496,106.6003337890625,16.244280066833497,106.6003337890625,17.597630066833496C106.6003337890625,17.597630066833496,106.6003337890625,42.2170700668335,106.6003337890625,42.2170700668335C106.6003337890625,42.2170700668335,106.6003337890625,42.2170700668335,106.6003337890625,42.2170700668335Z" fill-rule="evenodd" fill="#146AFF" fill-opacity="1"/></g></g><g><path d="M190.52214704589844,19.996806144714355C192.28314704589843,19.996806144714355,193.48124704589844,21.763666144714357,192.85804704589845,23.388686144714356C192.85804704589845,23.388686144714356,192.82014704589844,23.482256144714356,192.82014704589844,23.482256144714356C192.82014704589844,23.482256144714356,189.81994704589843,30.483606144714358,189.81994704589843,30.483606144714358C189.27604704589845,31.752906144714355,187.80624704589843,32.34090614471435,186.53714704589845,31.796906144714356C185.30234704589844,31.267606144714357,184.71234704589844,29.861706144714354,185.18234704589844,28.616966144714354C185.18234704589844,28.616966144714354,185.22404704589843,28.513626144714355,185.22404704589843,28.513626144714355C185.22404704589843,28.513626144714355,186.73044704589844,24.997756144714355,186.73044704589844,24.997756144714355C186.73044704589844,24.997756144714355,183.27177704589843,24.997756144714355,183.27177704589843,24.997756144714355C180.96713704589843,24.997756144714355,179.09091704589844,26.832336144714354,179.02345704589843,29.120946144714356C179.02345704589843,29.120946144714356,179.02157704589843,29.248546144714354,179.02157704589843,29.248546144714354C179.02157704589843,31.553506144714355,180.85588704589844,33.430006144714355,183.14418704589843,33.49750614471436C183.14418704589843,33.49750614471436,183.27177704589843,33.49940614471436,183.27177704589843,33.49940614471436C183.27177704589843,33.49940614471436,190.02214704589844,33.49940614471436,190.02214704589844,33.49940614471436C191.40284704589843,33.49940614471436,192.52224704589844,34.61890614471436,192.52224704589844,35.999806144714356C192.52224704589844,37.344406144714355,191.46104704589843,38.44120614471436,190.13054704589842,38.49800614471435C190.13054704589842,38.49800614471435,190.02214704589844,38.50030614471436,190.02214704589844,38.50030614471436C190.02214704589844,38.50030614471436,183.27177704589843,38.50030614471436,183.27177704589843,38.50030614471436C178.16291704589844,38.50030614471436,174.02134704589844,34.35820614471436,174.02134704589844,29.248546144714354C174.02134704589844,24.195096144714356,178.07238704589844,20.087958544714354,183.10371704589843,19.998301784714357C183.10371704589843,19.998301784714357,183.27177704589843,19.996806144714355,183.27177704589843,19.996806144714355C183.27177704589843,19.996806144714355,190.52214704589844,19.996806144714355,190.52214704589844,19.996806144714355C190.52214704589844,19.996806144714355,190.52214704589844,19.996806144714355,190.52214704589844,19.996806144714355Z" fill="#424242" fill-opacity="1"/></g></g></g></g></g><script xmlns=""/><script xmlns=""/></svg>
